<svg width="17" height="17" viewBox="0 0 17 17" fill="none" xmlns="http://www.w3.org/2000/svg">
  <path d="M8.50021 0.00819369C5.01862 0.00819369 1.71251 -0.30127 0.449703 2.93708C-0.0719121 4.27458 0.00383724 6.0116 0.00383724 8.4988C0.00383724 10.6813 -0.0661589 12.7326 0.449703 14.0596C1.70963 17.2998 5.0426 16.9894 8.49829 16.9894C11.8322 16.9894 15.2697 17.3362 16.5478 14.0596C17.0704 12.7087 16.9937 10.9975 16.9937 8.4988C16.9937 5.18189 17.1768 3.04055 15.5669 1.43288C13.9369 -0.19588 11.7325 0.00819369 8.49638 0.00819369H8.50021ZM7.73888 1.53827C15.0012 1.52677 15.9255 0.720057 15.4154 11.9269C15.2342 15.8905 12.2138 15.4555 8.50117 15.4555C1.73168 15.4555 1.53704 15.262 1.53704 8.49497C1.53704 1.64941 2.074 1.5421 7.73888 1.53635V1.53827ZM13.0356 2.94762C12.4727 2.94762 12.0163 3.40367 12.0163 3.96607C12.0163 4.52847 12.4727 4.98452 13.0356 4.98452C13.5984 4.98452 14.0548 4.52847 14.0548 3.96607C14.0548 3.40367 13.5984 2.94762 13.0356 2.94762ZM8.50021 4.13853C6.09062 4.13853 4.13744 6.09112 4.13744 8.4988C4.13744 10.9065 6.09062 12.8581 8.50021 12.8581C10.9098 12.8581 12.862 10.9065 12.862 8.4988C12.862 6.09112 10.9098 4.13853 8.50021 4.13853ZM8.50021 5.6686C12.2445 5.6686 12.2493 11.329 8.50021 11.329C4.75686 11.329 4.75111 5.6686 8.50021 5.6686Z" fill="white"/>
</svg>
