<svg width="30" height="31" viewBox="0 0 30 31" fill="none" xmlns="http://www.w3.org/2000/svg">
  <path d="M15.0004 2.30856C9.80161 2.30856 4.86488 1.84875 2.97924 6.66041C2.20036 8.64772 2.31347 11.2287 2.31347 14.9242C2.31347 18.1671 2.20895 21.215 2.97924 23.1866C4.86058 28.0012 9.83741 27.5399 14.9975 27.5399C19.9758 27.5399 25.1086 28.0552 27.0172 23.1866C27.7975 21.1794 27.683 18.6369 27.683 14.9242C27.683 9.99584 27.9564 6.81416 25.5525 4.42541C23.1185 2.00534 19.8269 2.30856 14.9946 2.30856H15.0004ZM13.8635 4.582C24.7077 4.56492 26.088 3.36628 25.3263 20.0178C25.0557 25.9071 20.5456 25.2608 15.0018 25.2608C4.89351 25.2608 4.60287 24.9732 4.60287 14.9185C4.60287 4.74714 5.40466 4.5877 13.8635 4.57916V4.582ZM21.7726 6.67607C20.9322 6.67607 20.2507 7.35369 20.2507 8.18933C20.2507 9.02496 20.9322 9.70258 21.7726 9.70258C22.6131 9.70258 23.2946 9.02496 23.2946 8.18933C23.2946 7.35369 22.6131 6.67607 21.7726 6.67607ZM15.0004 8.44557C11.4023 8.44557 8.48582 11.3468 8.48582 14.9242C8.48582 18.5017 11.4023 21.4015 15.0004 21.4015C18.5984 21.4015 21.5135 18.5017 21.5135 14.9242C21.5135 11.3468 18.5984 8.44557 15.0004 8.44557ZM15.0004 10.719C20.5914 10.719 20.5986 19.1295 15.0004 19.1295C9.41074 19.1295 9.40215 10.719 15.0004 10.719Z" fill="white"/>
</svg>
