<svg width="68" height="35" viewBox="0 0 68 35" fill="none" xmlns="http://www.w3.org/2000/svg">
  <path d="M4.93457 4.00263C5.83181 4.70537 10.5355 10.5956 13.4448 12.2056L59.6935 13.8921C59.6935 13.8921 61.3384 8.62795 56.1861 8.42352C56.1861 8.42352 49.3208 4.0154 48.2061 4.36039C48.2061 4.36039 57.1921 3.01879 57.1921 2.53326C57.1921 2.53326 57.3416 1.86884 56.961 1.88162L40.7698 1C40.7698 1 38.35 1 36.2972 2.40549L30.438 2.2266L22.825 5.20368L4.93457 4.00263Z" stroke="#77C9F9" stroke-miterlimit="10"/>
  <path d="M24.2529 5.21647L50.9391 6.4303C50.9391 6.4303 48.9406 5.31868 42.0754 4.27096C39.0166 3.81098 29.7723 3.05713 29.7723 3.05713L24.2529 5.21647Z" fill="#77C9F9"/>
  <path d="M37.6025 6.32812L54.052 8.05304L51.9176 6.97976L37.6025 6.32812Z" fill="#77C9F9"/>
  <path d="M20.9358 7.43972C21.4764 7.43972 21.9146 7.31958 21.9146 7.17139C21.9146 7.02321 21.4764 6.90308 20.9358 6.90308C20.3953 6.90308 19.957 7.02321 19.957 7.17139C19.957 7.31958 20.3953 7.43972 20.9358 7.43972Z" fill="#77C9F9"/>
  <path d="M25.5705 7.69541C26.1186 7.69541 26.5629 7.581 26.5629 7.43987C26.5629 7.29874 26.1186 7.18433 25.5705 7.18433C25.0224 7.18433 24.5781 7.29874 24.5781 7.43987C24.5781 7.581 25.0224 7.69541 25.5705 7.69541Z" fill="#77C9F9"/>
  <path d="M35.4133 8.1168C35.9614 8.1168 36.4057 8.00239 36.4057 7.86126C36.4057 7.72012 35.9614 7.60571 35.4133 7.60571C34.8652 7.60571 34.4209 7.72012 34.4209 7.86126C34.4209 8.00239 34.8652 8.1168 35.4133 8.1168Z" fill="#77C9F9"/>
  <path d="M38.9895 8.1168C39.5376 8.1168 39.9819 8.00239 39.9819 7.86126C39.9819 7.72012 39.5376 7.60571 38.9895 7.60571C38.4414 7.60571 37.9971 7.72012 37.9971 7.86126C37.9971 8.00239 38.4414 8.1168 38.9895 8.1168Z" fill="#77C9F9"/>
  <path d="M38.4588 2.00952L37.5752 2.71226L55.2481 2.36728L38.4588 2.00952Z" fill="#77C9F9"/>
  <path d="M0 10.3401C0 10.3401 6.55258 12.2056 12.9964 13.9432C12.9964 13.9432 23.0972 16.4859 33.1028 15.9876C43.1084 15.4893 52.2303 15.1443 68 16.7414C68 16.7414 57.7089 10.0718 37.9152 11.1195C31.4442 11.4645 23.8856 12.5633 11.8409 11.6817L0 10.3401Z" fill="#77C9F9"/>
  <path d="M18.067 21.0602C17.3872 20.8685 16.8842 20.6513 16.5716 20.383C16.2589 20.1147 16.1093 19.7825 16.1093 19.3864C16.1093 18.9392 16.2997 18.5686 16.6803 18.2748C17.061 17.9809 17.564 17.8403 18.1757 17.8403C18.5972 17.8403 18.9642 17.917 19.2905 18.0703C19.6167 18.2236 19.875 18.4281 20.0518 18.6964C20.2285 18.9647 20.3237 19.2586 20.3237 19.5652H19.5216C19.5216 19.2203 19.3992 18.9519 19.1681 18.7475C18.937 18.5559 18.6107 18.4536 18.1757 18.4536C17.7815 18.4536 17.4688 18.5303 17.2513 18.6964C17.0338 18.8625 16.925 19.0925 16.925 19.3736C16.925 19.6036 17.0338 19.808 17.2377 19.9613C17.4416 20.1274 17.8087 20.268 18.3117 20.4085C18.8147 20.5363 19.2089 20.6896 19.4944 20.8557C19.7799 21.0218 19.9838 21.2007 20.1333 21.4179C20.2829 21.6351 20.3373 21.8779 20.3373 22.1718C20.3373 22.6318 20.1469 23.0023 19.7663 23.2834C19.3856 23.5645 18.869 23.705 18.2301 23.705C17.8087 23.705 17.428 23.6284 17.061 23.4751C16.6939 23.3217 16.422 23.1173 16.2317 22.8618C16.0414 22.6062 15.9326 22.2996 15.9326 21.9674H16.7347C16.7347 22.3123 16.8706 22.5807 17.1425 22.7851C17.4144 22.9895 17.7815 23.079 18.2301 23.079C18.6515 23.079 18.9778 23.0023 19.1953 22.8362C19.4264 22.6701 19.5352 22.4529 19.5352 22.1718C19.5352 21.8907 19.4264 21.6735 19.2225 21.5202C19.0186 21.3668 18.6243 21.2135 18.067 21.0602Z" fill="#77C9F9"/>
  <path d="M24.0079 23.6029C23.9672 23.5134 23.9264 23.3729 23.8992 23.1557C23.5457 23.5006 23.1107 23.6795 22.6213 23.6795C22.1727 23.6795 21.8056 23.5645 21.5337 23.3218C21.2618 23.079 21.1123 22.7851 21.1123 22.4274C21.1123 21.9802 21.289 21.6479 21.6425 21.4052C21.996 21.1624 22.4989 21.0346 23.1515 21.0346H23.8992V20.7024C23.8992 20.4469 23.8176 20.2425 23.6545 20.1019C23.4914 19.9614 23.2602 19.8719 22.9476 19.8719C22.6757 19.8719 22.4446 19.9358 22.2542 20.0636C22.0639 20.1914 21.9688 20.3575 21.9688 20.5363H21.1939C21.1939 20.3191 21.2754 20.1147 21.4386 19.923C21.6017 19.7314 21.8192 19.5653 22.0911 19.4503C22.363 19.3353 22.6621 19.2842 22.9884 19.2842C23.5049 19.2842 23.9128 19.412 24.2119 19.6547C24.5109 19.8975 24.6605 20.2297 24.6741 20.6641V22.619C24.6741 23.0023 24.7285 23.3218 24.8372 23.5517V23.6156H24.0079V23.6029ZM22.7301 23.0534C22.9748 23.0534 23.2059 22.9895 23.4234 22.8746C23.6409 22.7596 23.7904 22.6062 23.8992 22.4146V21.5457H23.301C22.363 21.5457 21.8872 21.8013 21.8872 22.3251C21.8872 22.5551 21.9688 22.734 22.1319 22.8618C22.295 22.9896 22.4718 23.0534 22.7301 23.0534Z" fill="#77C9F9"/>
  <path d="M25.8701 18.249C25.8701 18.134 25.9109 18.0318 25.9789 17.9552C26.0468 17.8785 26.1692 17.8274 26.3187 17.8274C26.4683 17.8274 26.577 17.8657 26.6586 17.9552C26.7402 18.0446 26.781 18.134 26.781 18.249C26.781 18.364 26.7402 18.4663 26.6586 18.5429C26.577 18.6196 26.4683 18.6579 26.3187 18.6579C26.1692 18.6579 26.0604 18.6196 25.9789 18.5429C25.8973 18.4663 25.8701 18.364 25.8701 18.249ZM26.6994 23.6027H25.9245V19.3606H26.6994V23.6027Z" fill="#77C9F9"/>
  <path d="M28.7798 23.603H28.0049V17.585H28.7798V23.603Z" fill="#77C9F9"/>
  <path d="M54.7446 23.603H53.9697V17.585H54.7446V23.603Z" fill="#77C9F9"/>
  <path d="M34.4756 21.3029H33.0482V23.6156H32.2461V17.917H34.2581C34.9378 17.917 35.468 18.0575 35.8351 18.3514C36.2021 18.6453 36.3924 19.0669 36.3924 19.6291C36.3924 19.9869 36.2837 20.2935 36.0798 20.5619C35.8758 20.8302 35.5904 21.0218 35.2233 21.1496L36.6507 23.5645V23.6156H35.7807L34.4756 21.3029ZM33.0482 20.6769H34.2717C34.6659 20.6769 34.9786 20.5746 35.2233 20.383C35.4544 20.1913 35.5768 19.9358 35.5768 19.6036C35.5768 19.2458 35.468 18.9775 35.2369 18.7858C35.0194 18.5942 34.6931 18.5047 34.2717 18.5047H33.0482V20.6769Z" fill="#77C9F9"/>
  <path d="M39.248 23.6794C38.6363 23.6794 38.1333 23.4878 37.7526 23.1172C37.372 22.7339 37.1816 22.2356 37.1816 21.6095V21.4818C37.1816 21.0601 37.2632 20.6896 37.4399 20.3574C37.6167 20.0252 37.8478 19.7696 38.1605 19.578C38.4731 19.3863 38.7994 19.2969 39.1529 19.2969C39.7374 19.2969 40.1996 19.4758 40.5259 19.8463C40.8522 20.2041 41.0153 20.7279 41.0153 21.4051V21.7118H37.9565C37.9701 22.1334 38.0925 22.4656 38.3508 22.7212C38.5955 22.9767 38.9217 23.1045 39.3024 23.1045C39.5743 23.1045 39.8054 23.0534 39.9957 22.9511C40.186 22.8489 40.3492 22.7084 40.4851 22.5423L40.9609 22.8873C40.5667 23.4111 40.0093 23.6794 39.248 23.6794ZM39.1529 19.8846C38.8402 19.8846 38.5819 19.9868 38.3644 20.2041C38.1469 20.4213 38.0245 20.7151 37.9701 21.0985H40.2268V21.0473C40.1996 20.6768 40.1045 20.3957 39.9141 20.1913C39.7238 19.9868 39.4791 19.8846 39.1529 19.8846Z" fill="#77C9F9"/>
  <path d="M42.6325 19.3608L42.6597 19.8975C42.9996 19.4886 43.4482 19.2842 44.0056 19.2842C44.9572 19.2842 45.433 19.7953 45.4466 20.8047V23.6029H44.6717V20.8047C44.6717 20.498 44.5902 20.268 44.4542 20.1275C44.3047 19.9869 44.0872 19.9103 43.7745 19.9103C43.5298 19.9103 43.2987 19.9741 43.1219 20.1019C42.9316 20.2297 42.7821 20.3958 42.6869 20.6002V23.6156H41.8984V19.3736H42.6325V19.3608Z" fill="#77C9F9"/>
  <path d="M47.6482 18.3386V19.3608H48.491V19.923H47.6482V22.5551C47.6482 22.7212 47.689 22.849 47.7569 22.9384C47.8385 23.0278 47.9609 23.0662 48.1376 23.0662C48.2327 23.0662 48.3551 23.0534 48.5046 23.0151V23.6028C48.3007 23.6539 48.1104 23.6795 47.9065 23.6795C47.5666 23.6795 47.3083 23.5773 47.1316 23.3856C46.9549 23.1939 46.8733 22.9128 46.8733 22.5551V19.923H46.0576V19.3608H46.8733V18.3386H47.6482Z" fill="#77C9F9"/>
  <path d="M52.1759 23.6029C52.1351 23.5134 52.0943 23.3729 52.0672 23.1557C51.7137 23.5006 51.2787 23.6795 50.7893 23.6795C50.3406 23.6795 49.9736 23.5645 49.7017 23.3218C49.4162 23.0918 49.2803 22.7851 49.2803 22.4274C49.2803 21.9802 49.457 21.6479 49.8105 21.4052C50.1639 21.1624 50.6669 21.0346 51.3195 21.0346H52.0672V20.7024C52.0672 20.4469 51.9856 20.2425 51.8225 20.1019C51.6593 19.9614 51.4282 19.8719 51.1155 19.8719C50.8436 19.8719 50.6125 19.9358 50.4222 20.0636C50.2319 20.1914 50.1367 20.3575 50.1367 20.5363H49.3618C49.3618 20.3191 49.4434 20.1147 49.6065 19.923C49.7697 19.7314 49.9872 19.5653 50.2591 19.4503C50.531 19.3353 50.8301 19.2842 51.1563 19.2842C51.6729 19.2842 52.0808 19.412 52.3798 19.6547C52.6789 19.8975 52.8285 20.2297 52.842 20.6641V22.619C52.842 23.0023 52.8964 23.3218 53.0052 23.5517V23.6156H52.1759V23.6029ZM50.898 23.0534C51.1427 23.0534 51.3738 22.9895 51.5913 22.8746C51.8089 22.7596 51.9584 22.6062 52.0672 22.4146V21.5457H51.469C50.531 21.5457 50.0552 21.8013 50.0552 22.3251C50.0552 22.5551 50.1367 22.734 50.2999 22.8618C50.463 22.9896 50.6533 23.0534 50.898 23.0534Z" fill="#77C9F9"/>
  <path d="M58.4558 22.4785C58.4558 22.2868 58.3743 22.1335 58.2247 22.0185C58.0616 21.9163 57.7897 21.8141 57.409 21.7374C57.0284 21.6607 56.7157 21.5713 56.4846 21.4563C56.2535 21.3413 56.0904 21.2135 55.9816 21.0602C55.8729 20.9069 55.8185 20.728 55.8185 20.5236C55.8185 20.1786 55.968 19.8847 56.2807 19.6419C56.5934 19.3992 56.9876 19.2842 57.477 19.2842C57.9936 19.2842 58.4015 19.412 58.7277 19.6547C59.0404 19.8975 59.2035 20.2169 59.2035 20.6002H58.4286C58.4286 20.3958 58.3335 20.2297 58.1567 20.0891C57.98 19.9486 57.7489 19.8719 57.477 19.8719C57.1915 19.8719 56.974 19.923 56.8245 20.038C56.6749 20.153 56.5934 20.3064 56.5934 20.4852C56.5934 20.6641 56.6614 20.7919 56.8109 20.8813C56.9604 20.9708 57.2187 21.0602 57.613 21.1369C57.9936 21.2135 58.3063 21.3157 58.551 21.4307C58.7957 21.5457 58.9724 21.6735 59.0812 21.8396C59.1899 22.0057 59.2579 22.1846 59.2579 22.4146C59.2579 22.7979 59.0948 23.0918 58.7685 23.3218C58.4422 23.5517 58.0344 23.6667 57.5178 23.6667C57.1508 23.6667 56.8381 23.6029 56.5526 23.4879C56.2807 23.3729 56.0632 23.194 55.9001 22.9896C55.7369 22.7851 55.6689 22.5424 55.6689 22.2868H56.4438C56.4574 22.5296 56.5662 22.7212 56.7565 22.8618C56.9468 23.0023 57.2051 23.079 57.5178 23.079C57.8033 23.079 58.048 23.0279 58.2247 22.9129C58.3607 22.8107 58.4558 22.6701 58.4558 22.4785Z" fill="#77C9F9"/>
  <path d="M11.8264 32.1636C11.8264 31.9592 11.7448 31.8058 11.5817 31.6909C11.4185 31.5759 11.1331 31.4864 10.7388 31.397C10.3446 31.3203 10.0183 31.2181 9.7872 31.1031C9.55609 30.9881 9.37936 30.8603 9.2706 30.707C9.16185 30.5537 9.10747 30.362 9.10747 30.1576C9.10747 29.7998 9.2706 29.4932 9.58328 29.2504C9.90955 29.0077 10.3174 28.8799 10.8204 28.8799C11.3506 28.8799 11.772 29.0077 12.0983 29.2632C12.4245 29.5187 12.5877 29.8382 12.5877 30.247H11.7856C11.7856 30.0426 11.6904 29.8637 11.5137 29.7232C11.3234 29.5698 11.0923 29.506 10.8204 29.506C10.5349 29.506 10.3038 29.5699 10.1407 29.6848C9.97752 29.7998 9.89596 29.9532 9.89596 30.1448C9.89596 30.3237 9.97752 30.4642 10.1271 30.5537C10.2766 30.6431 10.5485 30.7326 10.9427 30.8092C11.337 30.8987 11.6632 30.9881 11.9079 31.1031C12.1527 31.2181 12.3294 31.3587 12.4517 31.5248C12.5741 31.6909 12.6285 31.8825 12.6285 32.1125C12.6285 32.4958 12.4653 32.8152 12.1255 33.0452C11.7992 33.2752 11.3642 33.403 10.834 33.403C10.4669 33.403 10.1407 33.3391 9.85517 33.2241C9.56969 33.0963 9.35217 32.9302 9.18904 32.713C9.0259 32.4958 8.94434 32.2531 8.94434 31.9975H9.73282C9.74641 32.2531 9.85517 32.4447 10.0455 32.5853C10.2494 32.7258 10.5077 32.8025 10.834 32.8025C11.1331 32.8025 11.3778 32.7514 11.5545 32.6364C11.7312 32.5086 11.8264 32.3553 11.8264 32.1636Z" fill="#77C9F9"/>
  <path d="M28.2766 32.1636C28.2766 31.9592 28.195 31.8058 28.0319 31.6909C27.8687 31.5759 27.5833 31.4864 27.189 31.397C26.7948 31.3203 26.4685 31.2181 26.2374 31.1031C26.0063 30.9881 25.8296 30.8603 25.7208 30.707C25.612 30.5537 25.5577 30.362 25.5577 30.1576C25.5577 29.7998 25.7208 29.4932 26.0335 29.2504C26.3597 29.0077 26.7676 28.8799 27.2706 28.8799C27.8008 28.8799 28.2222 29.0077 28.5485 29.2632C28.8747 29.5187 29.0379 29.8382 29.0379 30.247H28.2358C28.2358 30.0426 28.1406 29.8637 27.9639 29.7232C27.7736 29.5698 27.5425 29.506 27.2706 29.506C26.9851 29.506 26.754 29.5699 26.5909 29.6848C26.4277 29.7998 26.3462 29.9532 26.3462 30.1448C26.3462 30.3237 26.4277 30.4642 26.5773 30.5537C26.7268 30.6431 26.9987 30.7326 27.3929 30.8092C27.7872 30.8987 28.1134 30.9881 28.3581 31.1031C28.6028 31.2181 28.7796 31.3587 28.9019 31.5248C29.0243 31.6909 29.0787 31.8825 29.0787 32.1125C29.0787 32.4958 28.9155 32.8152 28.5757 33.0452C28.2494 33.2752 27.8144 33.403 27.2842 33.403C26.9171 33.403 26.5909 33.3391 26.3054 33.2241C26.0199 33.0963 25.8024 32.9302 25.6392 32.713C25.4761 32.4958 25.3945 32.2531 25.3945 31.9975H26.183C26.1966 32.2531 26.3054 32.4447 26.4957 32.5853C26.6996 32.7258 26.9579 32.8025 27.2842 32.8025C27.5833 32.8025 27.828 32.7514 28.0047 32.6364C28.195 32.5086 28.2766 32.3553 28.2766 32.1636Z" fill="#77C9F9"/>
  <path d="M14.437 29.4933C14.7905 29.0845 15.2391 28.88 15.8101 28.88C16.7889 28.88 17.2783 29.4039 17.2919 30.4388V33.3137H16.5034V30.4388C16.5034 30.1194 16.4218 29.8894 16.2723 29.7489C16.1227 29.5955 15.8916 29.5189 15.5789 29.5189C15.3206 29.5189 15.1031 29.5828 14.8992 29.7105C14.7089 29.8383 14.5594 30.0044 14.4506 30.2216V33.3265H13.6621V27.1423H14.4506V29.4933H14.437Z" fill="#77C9F9"/>
  <path d="M18.4746 27.8065C18.4746 27.6915 18.5154 27.5893 18.597 27.4998C18.6785 27.4232 18.7873 27.3721 18.9504 27.3721C19.1 27.3721 19.2223 27.4104 19.3039 27.4998C19.3854 27.5893 19.4262 27.6787 19.4262 27.8065C19.4262 27.9215 19.3854 28.0237 19.3039 28.1131C19.2223 28.1898 19.1 28.2281 18.9504 28.2281C18.8009 28.2281 18.6785 28.1898 18.597 28.1131C18.5154 28.0365 18.4746 27.9343 18.4746 27.8065ZM19.3311 33.3262H18.5426V28.9692H19.3311V33.3262Z" fill="#77C9F9"/>
  <path d="M24.5109 31.1925C24.5109 31.8569 24.3478 32.3935 24.0215 32.7896C23.6953 33.1857 23.2602 33.4029 22.7165 33.4029C22.1591 33.4029 21.7105 33.2368 21.3842 32.9046V35.0001H20.5957V28.9692H21.3162L21.357 29.4548C21.6833 29.0842 22.1319 28.8926 22.7029 28.8926C23.2602 28.8926 23.6953 29.0842 24.0215 29.4803C24.3478 29.8764 24.5109 30.4258 24.5109 31.1286V31.1925ZM23.7225 31.103C23.7225 30.6175 23.6137 30.2214 23.3826 29.9403C23.1651 29.6592 22.8524 29.5187 22.4718 29.5187C21.9959 29.5187 21.6289 29.7231 21.3978 30.1192V32.2019C21.6289 32.5979 21.9959 32.8024 22.4854 32.8024C22.866 32.8024 23.1651 32.6618 23.3962 32.3807C23.6137 32.0869 23.7225 31.6652 23.7225 31.103Z" fill="#77C9F9"/>
  <path d="M33.7969 31.7419C33.7969 31.4608 33.8784 31.2053 34.0416 30.9625C34.2047 30.7325 34.531 30.4514 34.9932 30.132C34.7213 29.8126 34.531 29.557 34.4358 29.3654C34.3407 29.1737 34.2999 28.9821 34.2999 28.7904C34.2999 28.3432 34.4358 27.9982 34.7213 27.7427C35.0068 27.4871 35.3874 27.3594 35.8633 27.3594C36.2847 27.3594 36.6381 27.4744 36.9236 27.7171C37.2091 27.9471 37.3451 28.2538 37.3451 28.5988C37.3451 28.8287 37.2771 29.0587 37.1547 29.2504C37.0324 29.4548 36.8013 29.6593 36.4886 29.8765L36.0264 30.1959L37.413 31.7547C37.6034 31.4097 37.6985 31.0136 37.6985 30.592H38.419C38.419 31.282 38.2423 31.8442 37.8888 32.2914L38.7725 33.288H37.8209L37.3994 32.828C37.1819 33.0069 36.9372 33.1346 36.6517 33.2369C36.3662 33.3263 36.0808 33.3774 35.7817 33.3774C35.1699 33.3774 34.6805 33.2241 34.3135 32.9174C33.9736 32.6491 33.7969 32.2402 33.7969 31.7419ZM35.8089 32.7897C36.2303 32.7897 36.611 32.6363 36.9644 32.3425L35.4418 30.6303L35.3059 30.7325C34.8301 31.0647 34.5854 31.397 34.5854 31.7547C34.5854 32.0741 34.6941 32.3297 34.9116 32.5213C35.1291 32.7002 35.4282 32.7897 35.8089 32.7897ZM35.0884 28.7776C35.0884 29.0332 35.2515 29.3526 35.5914 29.7487L36.0944 29.4165C36.2847 29.2887 36.4206 29.161 36.4886 29.046C36.5566 28.931 36.5974 28.7904 36.5974 28.6243C36.5974 28.4454 36.5294 28.2921 36.3798 28.1771C36.2303 28.0621 36.0536 27.9982 35.8361 27.9982C35.605 27.9982 35.4146 28.0749 35.2787 28.2154C35.1563 28.3688 35.0884 28.5476 35.0884 28.7776Z" fill="#77C9F9"/>
  <path d="M47.296 31.614C47.296 32.2784 47.1329 32.815 46.8066 33.2111C46.4803 33.62 46.0453 33.8117 45.5015 33.8117C44.917 33.8117 44.4683 33.62 44.1421 33.2239L44.1013 33.7222H43.3672V27.5381H44.1557V29.838C44.4819 29.4674 44.917 29.2758 45.4743 29.2758C46.0317 29.2758 46.4803 29.4802 46.793 29.8763C47.1193 30.2724 47.2688 30.8218 47.2688 31.5118V31.614H47.296ZM46.4939 31.5246C46.4939 31.0135 46.3852 30.6302 46.1813 30.3491C45.9773 30.068 45.6783 29.9402 45.284 29.9402C44.7674 29.9402 44.3868 30.1702 44.1557 30.6302V32.5084C44.4004 32.9684 44.781 33.1984 45.284 33.1984C45.6647 33.1984 45.9637 33.0578 46.1677 32.7895C46.3988 32.4956 46.4939 32.0868 46.4939 31.5246Z" fill="#77C9F9"/>
  <path d="M48.083 31.5247C48.083 31.1031 48.1782 30.7198 48.3549 30.3748C48.5316 30.0298 48.7763 29.7743 49.1026 29.5826C49.4153 29.4037 49.7823 29.3015 50.1902 29.3015C50.8155 29.3015 51.3321 29.5059 51.7263 29.9148C52.1206 30.3237 52.3109 30.8731 52.3109 31.5503V31.6014C52.3109 32.023 52.2294 32.4064 52.0526 32.7386C51.8759 33.0708 51.6312 33.3391 51.3049 33.5307C50.9787 33.7224 50.6116 33.8118 50.2038 33.8118C49.5784 33.8118 49.0618 33.6074 48.6812 33.1985C48.2869 32.7897 48.0966 32.2403 48.0966 31.5631V31.5247H48.083ZM48.8715 31.6142C48.8715 32.0997 48.9938 32.483 49.225 32.7769C49.4697 33.0708 49.7823 33.2113 50.1766 33.2113C50.5844 33.2113 50.8971 33.058 51.1418 32.7641C51.3865 32.4702 51.4952 32.0486 51.4952 31.5247C51.4952 31.052 51.3729 30.6559 51.1282 30.362C50.8835 30.0681 50.5708 29.9148 50.163 29.9148C49.7687 29.9148 49.4561 30.0554 49.2114 30.3492C48.9938 30.6559 48.8715 31.0648 48.8715 31.6142Z" fill="#77C9F9"/>
  <path d="M56.1451 33.735C56.1043 33.6456 56.0635 33.4923 56.0363 33.275C55.6693 33.6328 55.2343 33.8117 54.7177 33.8117C54.2555 33.8117 53.8884 33.6839 53.5893 33.4411C53.2902 33.1984 53.1543 32.8917 53.1543 32.5212C53.1543 32.074 53.331 31.7162 53.6981 31.4607C54.0651 31.2051 54.5817 31.0902 55.2479 31.0902H56.0228V30.7452C56.0228 30.4896 55.9412 30.2724 55.778 30.1191C55.6149 29.9658 55.3702 29.8891 55.0439 29.8891C54.7585 29.8891 54.5273 29.953 54.337 30.0935C54.1467 30.2213 54.0515 30.3874 54.0515 30.5791H53.2495C53.2495 30.3619 53.331 30.1574 53.4942 29.953C53.6573 29.7486 53.8748 29.5952 54.1603 29.4675C54.4458 29.3525 54.7449 29.2886 55.0847 29.2886C55.6149 29.2886 56.0363 29.4163 56.3354 29.6591C56.6345 29.9019 56.7976 30.2596 56.8112 30.6941V32.7001C56.8112 33.0962 56.8656 33.4156 56.9744 33.6584V33.7222H56.1451V33.735ZM54.84 33.1728C55.0847 33.1728 55.3294 33.1089 55.5469 32.9939C55.7645 32.879 55.9276 32.7128 56.0363 32.5212V31.6268H55.411C54.4458 31.6268 53.9564 31.8951 53.9564 32.4318C53.9564 32.6617 54.0379 32.8534 54.2011 32.9812C54.3642 33.1089 54.5681 33.1728 54.84 33.1728Z" fill="#77C9F9"/>
  <path d="M59.1353 28.3306V29.3911H60.0053V29.966H59.1353V32.6748C59.1353 32.8537 59.176 32.9814 59.2576 33.0709C59.3392 33.1603 59.4615 33.1987 59.6518 33.1987C59.747 33.1987 59.8694 33.1859 60.0325 33.1476V33.7481C59.8286 33.7992 59.6247 33.8247 59.4207 33.8247C59.0673 33.8247 58.7954 33.7225 58.6187 33.5181C58.4419 33.3137 58.3468 33.0326 58.3468 32.662V29.966H57.5039V29.3911H58.3468V28.3306H59.1353Z" fill="#77C9F9"/>
  <path d="M63.6233 32.5852C63.6233 32.3808 63.5417 32.2275 63.3786 32.1125C63.2154 31.9975 62.9299 31.908 62.5357 31.8186C62.1415 31.7419 61.8152 31.6397 61.5841 31.5247C61.353 31.4097 61.1762 31.282 61.0675 31.1286C60.9587 30.9753 60.9043 30.7837 60.9043 30.5792C60.9043 30.2215 61.0675 29.9148 61.3802 29.672C61.7064 29.4293 62.1143 29.3015 62.6173 29.3015C63.1475 29.3015 63.5689 29.4293 63.8952 29.6848C64.2214 29.9404 64.3846 30.2598 64.3846 30.6687H63.5825C63.5825 30.4642 63.4873 30.2854 63.3106 30.1448C63.1203 29.9915 62.8892 29.9276 62.6173 29.9276C62.3318 29.9276 62.1007 29.9915 61.9375 30.1065C61.7744 30.2215 61.6928 30.3748 61.6928 30.5664C61.6928 30.7453 61.7744 30.8859 61.9239 30.9753C62.0735 31.0648 62.3454 31.1542 62.7396 31.2309C63.1339 31.3203 63.4601 31.4097 63.7048 31.5247C63.9495 31.6397 64.1263 31.7803 64.2486 31.9464C64.371 32.1125 64.4253 32.3041 64.4253 32.5341C64.4253 32.9174 64.2622 33.2369 63.9223 33.4669C63.5961 33.6969 63.161 33.8246 62.6309 33.8246C62.2638 33.8246 61.9375 33.7607 61.652 33.6457C61.3666 33.518 61.1491 33.3519 60.9859 33.1347C60.8228 32.9174 60.7412 32.6747 60.7412 32.4191H61.5297C61.5433 32.6747 61.6521 32.8663 61.8424 33.0069C62.0463 33.1474 62.3046 33.2241 62.6309 33.2241C62.9299 33.2241 63.1746 33.173 63.3514 33.058C63.5281 32.9302 63.6233 32.7769 63.6233 32.5852Z" fill="#77C9F9"/>
</svg>
