<svg width="158" height="90" viewBox="0 0 158 90" fill="none" xmlns="http://www.w3.org/2000/svg">
  <path d="M32.7979 18.1254C34.1846 19.2815 41.4542 28.9719 45.9505 31.6205L117.429 34.3952C117.429 34.3952 119.971 25.7348 112.008 25.3985C112.008 25.3985 101.398 18.1464 99.6747 18.7139C99.6747 18.7139 113.563 16.5068 113.563 15.708C113.563 15.708 113.794 14.6149 113.206 14.636L88.1819 13.1855C88.1819 13.1855 84.442 13.1855 81.2694 15.4978L72.2138 15.2035L60.4479 20.1013L32.7979 18.1254Z" stroke="#77C9F9" stroke-miterlimit="10"/>
  <path d="M62.6538 20.1223L103.898 22.1192C103.898 22.1192 100.809 20.2904 90.1987 18.5668C85.4714 17.81 71.1841 16.5698 71.1841 16.5698L62.6538 20.1223Z" fill="#77C9F9"/>
  <path d="M83.2861 21.9512L108.709 24.7889L105.41 23.0232L83.2861 21.9512Z" fill="#77C9F9"/>
  <path d="M57.5274 23.7798C58.3629 23.7798 59.0402 23.5822 59.0402 23.3384C59.0402 23.0946 58.3629 22.897 57.5274 22.897C56.6919 22.897 56.0146 23.0946 56.0146 23.3384C56.0146 23.5822 56.6919 23.7798 57.5274 23.7798Z" fill="#77C9F9"/>
  <path d="M64.692 24.2002C65.5391 24.2002 66.2258 24.012 66.2258 23.7798C66.2258 23.5476 65.5391 23.3594 64.692 23.3594C63.8449 23.3594 63.1582 23.5476 63.1582 23.7798C63.1582 24.012 63.8449 24.2002 64.692 24.2002Z" fill="#77C9F9"/>
  <path d="M79.9034 24.894C80.7505 24.894 81.4372 24.7058 81.4372 24.4736C81.4372 24.2414 80.7505 24.0532 79.9034 24.0532C79.0563 24.0532 78.3696 24.2414 78.3696 24.4736C78.3696 24.7058 79.0563 24.894 79.9034 24.894Z" fill="#77C9F9"/>
  <path d="M85.4293 24.894C86.2764 24.894 86.9631 24.7058 86.9631 24.4736C86.9631 24.2414 86.2764 24.0532 85.4293 24.0532C84.5822 24.0532 83.8955 24.2414 83.8955 24.4736C83.8955 24.7058 84.5822 24.894 85.4293 24.894Z" fill="#77C9F9"/>
  <path d="M84.6098 14.8462L83.2441 16.0023L110.558 15.4348L84.6098 14.8462Z" fill="#77C9F9"/>
  <path d="M25.1709 28.5518C25.1709 28.5518 35.298 31.6207 45.2571 34.4795C45.2571 34.4795 60.868 38.6626 76.3318 37.8428C91.7956 37.023 105.894 36.4555 130.266 39.083C130.266 39.083 114.361 28.1103 83.7696 29.834C73.7685 30.4016 62.0866 32.2093 43.4712 30.7589L25.1709 28.5518Z" fill="#77C9F9"/>
  <path d="M53.0941 46.1878C52.0435 45.8725 51.2662 45.5151 50.7829 45.0737C50.2997 44.6323 50.0685 44.0857 50.0685 43.4341C50.0685 42.6984 50.3627 42.0888 50.951 41.6053C51.5393 41.1218 52.3167 40.8906 53.2622 40.8906C53.9135 40.8906 54.4808 41.0168 54.985 41.269C55.4893 41.5212 55.8885 41.8576 56.1616 42.299C56.4348 42.7404 56.5818 43.2239 56.5818 43.7284H55.3422C55.3422 43.1608 55.1531 42.7194 54.7959 42.3831C54.4388 42.0678 53.9345 41.8996 53.2622 41.8996C52.6529 41.8996 52.1696 42.0257 51.8334 42.299C51.4973 42.5723 51.3292 42.9506 51.3292 43.4131C51.3292 43.7914 51.4973 44.1278 51.8124 44.38C52.1276 44.6533 52.6949 44.8845 53.4723 45.1157C54.2497 45.3259 54.859 45.5782 55.3002 45.8514C55.7414 46.1247 56.0566 46.419 56.2877 46.7763C56.5188 47.1337 56.6029 47.5331 56.6029 48.0165C56.6029 48.7733 56.3087 49.3829 55.7204 49.8453C55.1321 50.3078 54.3337 50.539 53.3462 50.539C52.6949 50.539 52.1066 50.4129 51.5393 50.1606C50.972 49.9084 50.5518 49.5721 50.2576 49.1517C49.9635 48.7312 49.7954 48.2268 49.7954 47.6802H51.035C51.035 48.2478 51.2451 48.6892 51.6654 49.0255C52.0856 49.3619 52.6529 49.509 53.3462 49.509C53.9975 49.509 54.5018 49.3829 54.838 49.1096C55.1951 48.8363 55.3632 48.479 55.3632 48.0165C55.3632 47.5541 55.1951 47.1968 54.88 46.9445C54.5648 46.6923 53.9555 46.44 53.0941 46.1878Z" fill="#77C9F9"/>
  <path d="M62.2761 50.371C62.213 50.2239 62.15 49.9927 62.108 49.6353C61.5617 50.2029 60.8894 50.4972 60.133 50.4972C59.4396 50.4972 58.8723 50.308 58.4521 49.9086C58.0319 49.5092 57.8008 49.0257 57.8008 48.4371C57.8008 47.7014 58.0739 47.1549 58.6202 46.7555C59.1665 46.3561 59.9439 46.1459 60.9524 46.1459H62.108V45.5994C62.108 45.179 61.9819 44.8426 61.7298 44.6114C61.4776 44.3802 61.1205 44.233 60.6372 44.233C60.217 44.233 59.8598 44.3382 59.5657 44.5484C59.2715 44.7586 59.1245 45.0318 59.1245 45.3261H57.9268C57.9268 44.9688 58.0529 44.6324 58.305 44.3171C58.5572 44.0018 58.8933 43.7286 59.3135 43.5394C59.7338 43.3502 60.196 43.2661 60.7003 43.2661C61.4987 43.2661 62.129 43.4763 62.5912 43.8757C63.0535 44.2751 63.2846 44.8216 63.3056 45.5363V48.7524C63.3056 49.3831 63.3896 49.9086 63.5577 50.2869V50.392H62.2761V50.371ZM60.3011 49.4671C60.6792 49.4671 61.0364 49.362 61.3726 49.1729C61.7088 48.9837 61.9399 48.7314 62.108 48.4161V46.9867H61.1835C59.7338 46.9867 58.9984 47.4071 58.9984 48.269C58.9984 48.6473 59.1245 48.9416 59.3766 49.1518C59.6287 49.362 59.9018 49.4671 60.3011 49.4671Z" fill="#77C9F9"/>
  <path d="M65.1543 41.5633C65.1543 41.3741 65.2173 41.206 65.3224 41.0798C65.4274 40.9537 65.6165 40.8696 65.8476 40.8696C66.0788 40.8696 66.2468 40.9327 66.3729 41.0798C66.499 41.227 66.562 41.3741 66.562 41.5633C66.562 41.7525 66.499 41.9207 66.3729 42.0468C66.2468 42.1729 66.0788 42.236 65.8476 42.236C65.6165 42.236 65.4484 42.1729 65.3224 42.0468C65.1963 41.9207 65.1543 41.7525 65.1543 41.5633ZM66.4359 50.3709H65.2383V43.3921H66.4359V50.3709Z" fill="#77C9F9"/>
  <path d="M69.6503 50.3709H68.4526V40.4702H69.6503V50.3709Z" fill="#77C9F9"/>
  <path d="M109.781 50.3709H108.583V40.4702H109.781V50.3709Z" fill="#77C9F9"/>
  <path d="M78.454 46.587H76.2479V50.3917H75.0083V41.0166H78.1179C79.1684 41.0166 79.9878 41.2478 80.5551 41.7313C81.1224 42.2148 81.4165 42.9084 81.4165 43.8333C81.4165 44.4219 81.2485 44.9264 80.9333 45.3678C80.6181 45.8093 80.1769 46.1246 79.6096 46.3348L81.8157 50.3077V50.3917H80.4711L78.454 46.587ZM76.2479 45.557H78.1389C78.7482 45.557 79.2314 45.3889 79.6096 45.0736C79.9668 44.7582 80.1559 44.3378 80.1559 43.7913C80.1559 43.2027 79.9878 42.7613 79.6306 42.446C79.2945 42.1307 78.7902 41.9835 78.1389 41.9835H76.2479V45.557Z" fill="#77C9F9"/>
  <path d="M85.8289 50.4966C84.8834 50.4966 84.106 50.1813 83.5177 49.5717C82.9294 48.9411 82.6353 48.1213 82.6353 47.0913V46.8811C82.6353 46.1874 82.7613 45.5779 83.0345 45.0313C83.3076 44.4848 83.6648 44.0644 84.148 43.7491C84.6313 43.4338 85.1355 43.2866 85.6818 43.2866C86.5853 43.2866 87.2996 43.5809 87.8039 44.1905C88.3081 44.7791 88.5603 45.6409 88.5603 46.755V47.2595H83.8329C83.8539 47.9532 84.043 48.4997 84.4422 48.9201C84.8204 49.3405 85.3246 49.5507 85.9129 49.5507C86.3331 49.5507 86.6903 49.4666 86.9845 49.2985C87.2786 49.1303 87.5307 48.8991 87.7408 48.6258L88.4762 49.1934C87.8669 50.0552 87.0055 50.4966 85.8289 50.4966ZM85.6818 44.2536C85.1986 44.2536 84.7994 44.4217 84.4632 44.7791C84.127 45.1364 83.9379 45.6199 83.8539 46.2505H87.3416V46.1664C87.2996 45.5568 87.1525 45.0944 86.8584 44.7581C86.5642 44.4217 86.1861 44.2536 85.6818 44.2536Z" fill="#77C9F9"/>
  <path d="M91.0604 43.3922L91.1024 44.2751C91.6276 43.6024 92.321 43.2661 93.1824 43.2661C94.6532 43.2661 95.3886 44.1069 95.4096 45.7675V50.371H94.212V45.7675C94.212 45.2631 94.0859 44.8847 93.8758 44.6535C93.6447 44.4222 93.3085 44.2961 92.8253 44.2961C92.4471 44.2961 92.0899 44.4012 91.8167 44.6114C91.5226 44.8216 91.2915 45.0949 91.1444 45.4312V50.392H89.9258V43.4133H91.0604V43.3922Z" fill="#77C9F9"/>
  <path d="M98.8132 41.7104V43.3921H100.116V44.317H98.8132V48.6472C98.8132 48.9205 98.8762 49.1307 98.9813 49.2778C99.1074 49.425 99.2965 49.488 99.5696 49.488C99.7167 49.488 99.9058 49.467 100.137 49.4039V50.3709C99.8217 50.455 99.5276 50.497 99.2124 50.497C98.6872 50.497 98.2879 50.3288 98.0148 50.0135C97.7417 49.6982 97.6156 49.2358 97.6156 48.6472V44.317H96.355V43.3921H97.6156V41.7104H98.8132Z" fill="#77C9F9"/>
  <path d="M105.81 50.371C105.747 50.2239 105.684 49.9927 105.642 49.6353C105.095 50.2029 104.423 50.4972 103.667 50.4972C102.973 50.4972 102.406 50.308 101.986 49.9086C101.545 49.5302 101.334 49.0257 101.334 48.4371C101.334 47.7014 101.608 47.1549 102.154 46.7555C102.7 46.3561 103.478 46.1459 104.486 46.1459H105.642V45.5994C105.642 45.179 105.516 44.8426 105.263 44.6114C105.011 44.3802 104.654 44.233 104.171 44.233C103.751 44.233 103.394 44.3382 103.099 44.5484C102.805 44.7586 102.658 45.0318 102.658 45.3261H101.461C101.461 44.9688 101.587 44.6324 101.839 44.3171C102.091 44.0018 102.427 43.7286 102.847 43.5394C103.267 43.3502 103.73 43.2661 104.234 43.2661C105.032 43.2661 105.663 43.4763 106.125 43.8757C106.587 44.2751 106.818 44.8216 106.839 45.5363V48.7524C106.839 49.3831 106.923 49.9086 107.091 50.2869V50.392H105.81V50.371ZM103.835 49.4671C104.213 49.4671 104.57 49.362 104.906 49.1729C105.242 48.9837 105.474 48.7314 105.642 48.4161V46.9867H104.717C103.267 46.9867 102.532 47.4071 102.532 48.269C102.532 48.6473 102.658 48.9416 102.91 49.1518C103.162 49.362 103.457 49.4671 103.835 49.4671Z" fill="#77C9F9"/>
  <path d="M115.517 48.5212C115.517 48.2059 115.391 47.9537 115.159 47.7645C114.907 47.5963 114.487 47.4282 113.899 47.302C113.311 47.1759 112.827 47.0288 112.47 46.8396C112.113 46.6504 111.861 46.4402 111.693 46.188C111.525 45.9357 111.441 45.6414 111.441 45.3051C111.441 44.7375 111.672 44.2541 112.155 43.8547C112.638 43.4553 113.247 43.2661 114.004 43.2661C114.802 43.2661 115.433 43.4763 115.937 43.8757C116.42 44.2751 116.672 44.8006 116.672 45.4312H115.475C115.475 45.0949 115.328 44.8216 115.054 44.5904C114.781 44.3592 114.424 44.233 114.004 44.233C113.563 44.233 113.226 44.3171 112.995 44.5063C112.764 44.6955 112.638 44.9477 112.638 45.242C112.638 45.5363 112.743 45.7465 112.974 45.8937C113.205 46.0408 113.605 46.188 114.214 46.3141C114.802 46.4402 115.286 46.6084 115.664 46.7975C116.042 46.9867 116.315 47.1969 116.483 47.4702C116.651 47.7435 116.756 48.0378 116.756 48.4161C116.756 49.0467 116.504 49.5302 116 49.9086C115.496 50.2869 114.865 50.4761 114.067 50.4761C113.5 50.4761 113.016 50.371 112.575 50.1818C112.155 49.9927 111.819 49.6984 111.567 49.362C111.315 49.0257 111.209 48.6263 111.209 48.2059H112.407C112.428 48.6053 112.596 48.9206 112.89 49.1518C113.184 49.3831 113.584 49.5092 114.067 49.5092C114.508 49.5092 114.886 49.4251 115.159 49.2359C115.37 49.0678 115.517 48.8365 115.517 48.5212Z" fill="#77C9F9"/>
  <path d="M43.4504 64.4545C43.4504 64.1182 43.3243 63.8659 43.0722 63.6768C42.82 63.4876 42.3788 63.3404 41.7695 63.1933C41.1602 63.0672 40.6559 62.899 40.2988 62.7098C39.9416 62.5206 39.6684 62.3104 39.5003 62.0582C39.3323 61.8059 39.2482 61.4906 39.2482 61.1543C39.2482 60.5657 39.5003 60.0612 39.9836 59.6618C40.4879 59.2625 41.1182 59.0522 41.8956 59.0522C42.715 59.0522 43.3663 59.2625 43.8706 59.6829C44.3748 60.1033 44.627 60.6288 44.627 61.3014H43.3873C43.3873 60.9651 43.2402 60.6708 42.9671 60.4396C42.673 60.1874 42.3158 60.0823 41.8956 60.0823C41.4543 60.0823 41.0972 60.1874 40.845 60.3765C40.5929 60.5657 40.4668 60.818 40.4668 61.1333C40.4668 61.4276 40.5929 61.6588 40.824 61.8059C41.0551 61.9531 41.4754 62.1002 42.0847 62.2263C42.694 62.3735 43.1982 62.5206 43.5764 62.7098C43.9546 62.899 44.2277 63.1302 44.4168 63.4035C44.6059 63.6768 44.69 63.9921 44.69 64.3704C44.69 65.0011 44.4379 65.5266 43.9126 65.9049C43.4083 66.2833 42.736 66.4935 41.9166 66.4935C41.3493 66.4935 40.845 66.3884 40.4038 66.1992C39.9626 65.989 39.6264 65.7157 39.3743 65.3584C39.1222 65.001 38.9961 64.6017 38.9961 64.1813H40.2147C40.2357 64.6017 40.4038 64.917 40.698 65.1482C41.0131 65.3794 41.4123 65.5055 41.9166 65.5055C42.3788 65.5055 42.757 65.4215 43.0301 65.2323C43.3033 65.0221 43.4504 64.7698 43.4504 64.4545Z" fill="#77C9F9"/>
  <path d="M68.8732 64.4545C68.8732 64.1182 68.7471 63.8659 68.495 63.6768C68.2429 63.4876 67.8017 63.3404 67.1923 63.1933C66.583 63.0672 66.0788 62.899 65.7216 62.7098C65.3644 62.5206 65.0913 62.3104 64.9232 62.0582C64.7551 61.8059 64.6711 61.4906 64.6711 61.1543C64.6711 60.5657 64.9232 60.0612 65.4064 59.6618C65.9107 59.2625 66.541 59.0522 67.3184 59.0522C68.1378 59.0522 68.7892 59.2625 69.2934 59.6829C69.7977 60.1033 70.0498 60.6288 70.0498 61.3014H68.8102C68.8102 60.9651 68.6631 60.6708 68.39 60.4396C68.0958 60.1874 67.7386 60.0823 67.3184 60.0823C66.8772 60.0823 66.52 60.1874 66.2679 60.3765C66.0158 60.5657 65.8897 60.818 65.8897 61.1333C65.8897 61.4276 66.0158 61.6588 66.2469 61.8059C66.478 61.9531 66.8982 62.1002 67.5075 62.2263C68.1168 62.3735 68.6211 62.5206 68.9993 62.7098C69.3775 62.899 69.6506 63.1302 69.8397 63.4035C70.0288 63.6768 70.1128 63.9921 70.1128 64.3704C70.1128 65.0011 69.8607 65.5266 69.3354 65.9049C68.8312 66.2833 68.1588 66.4935 67.3394 66.4935C66.7721 66.4935 66.2679 66.3884 65.8267 66.1992C65.3854 65.989 65.0493 65.7157 64.7971 65.3584C64.545 65.001 64.4189 64.6017 64.4189 64.1813H65.6376C65.6586 64.6017 65.8267 64.917 66.1208 65.1482C66.436 65.3794 66.8352 65.5055 67.3394 65.5055C67.8017 65.5055 68.1798 65.4215 68.453 65.2323C68.7471 65.0221 68.8732 64.7698 68.8732 64.4545Z" fill="#77C9F9"/>
  <path d="M47.4842 60.0611C48.0305 59.3885 48.7238 59.0521 49.6063 59.0521C51.1191 59.0521 51.8754 59.914 51.8964 61.6166V66.3463H50.6778V61.6166C50.6778 61.0911 50.5518 60.7128 50.3207 60.4815C50.0895 60.2293 49.7324 60.1032 49.2491 60.1032C48.8499 60.1032 48.5137 60.2083 48.1986 60.4185C47.9044 60.6287 47.6733 60.9019 47.5052 61.2593V66.3673H46.2866V56.1934H47.5052V60.0611H47.4842Z" fill="#77C9F9"/>
  <path d="M53.7241 57.2865C53.7241 57.0973 53.7872 56.9291 53.9132 56.782C54.0393 56.6559 54.2074 56.5718 54.4595 56.5718C54.6906 56.5718 54.8797 56.6348 55.0058 56.782C55.1318 56.9291 55.1949 57.0763 55.1949 57.2865C55.1949 57.4757 55.1318 57.6438 55.0058 57.791C54.8797 57.9171 54.6906 57.9802 54.4595 57.9802C54.2284 57.9802 54.0393 57.9171 53.9132 57.791C53.7872 57.6648 53.7241 57.4967 53.7241 57.2865ZM55.0478 66.3673H53.8292V59.1993H55.0478V66.3673Z" fill="#77C9F9"/>
  <path d="M63.053 62.8569C63.053 63.95 62.8009 64.8329 62.2966 65.4845C61.7924 66.1361 61.12 66.4935 60.2796 66.4935C59.4182 66.4935 58.7248 66.2202 58.2206 65.6737V69.121H57.002V59.1994H58.1155L58.1786 59.9981C58.6828 59.3885 59.3762 59.0732 60.2586 59.0732C61.12 59.0732 61.7924 59.3886 62.2966 60.0402C62.8009 60.6918 63.053 61.5957 63.053 62.7518V62.8569ZM61.8344 62.7098C61.8344 61.911 61.6663 61.2594 61.3091 60.7969C60.973 60.3345 60.4897 60.1032 59.9014 60.1032C59.1661 60.1032 58.5988 60.4396 58.2416 61.0912V64.5176C58.5988 65.1692 59.1661 65.5055 59.9224 65.5055C60.5107 65.5055 60.973 65.2743 61.3301 64.8118C61.6663 64.3284 61.8344 63.6347 61.8344 62.7098Z" fill="#77C9F9"/>
  <path d="M77.4033 63.7608C77.4033 63.2984 77.5294 62.8779 77.7815 62.4786C78.0336 62.1002 78.5379 61.6377 79.2523 61.1122C78.832 60.5867 78.5379 60.1663 78.3908 59.851C78.2437 59.5357 78.1807 59.2204 78.1807 58.9051C78.1807 58.1694 78.3908 57.6018 78.832 57.1814C79.2733 56.761 79.8616 56.5508 80.5969 56.5508C81.2483 56.5508 81.7945 56.74 82.2358 57.1394C82.677 57.5177 82.8871 58.0222 82.8871 58.5898C82.8871 58.9681 82.782 59.3465 82.5929 59.6618C82.4039 59.9981 82.0467 60.3345 81.5634 60.6918L80.8491 61.2173L82.9921 63.7818C83.2863 63.2143 83.4334 62.5626 83.4334 61.869H84.5469C84.5469 63.0041 84.2738 63.929 83.7275 64.6647L85.0932 66.3043H83.6225L82.9711 65.5475C82.635 65.8418 82.2568 66.052 81.8156 66.2202C81.3743 66.3673 80.9331 66.4514 80.4709 66.4514C79.5254 66.4514 78.769 66.1992 78.2017 65.6947C77.6765 65.2533 77.4033 64.5806 77.4033 63.7608ZM80.5129 65.4845C81.1642 65.4845 81.7525 65.2322 82.2988 64.7488L79.9456 61.932L79.7355 62.1002C79.0001 62.6467 78.6219 63.1932 78.6219 63.7818C78.6219 64.3073 78.79 64.7277 79.1262 65.043C79.4624 65.3373 79.9246 65.4845 80.5129 65.4845ZM79.3993 58.8841C79.3993 59.3045 79.6515 59.83 80.1767 60.4816L80.9541 59.9351C81.2483 59.7249 81.4584 59.5147 81.5634 59.3255C81.6685 59.1363 81.7315 58.9051 81.7315 58.6318C81.7315 58.3375 81.6265 58.0853 81.3953 57.8961C81.1642 57.7069 80.8911 57.6018 80.5549 57.6018C80.1977 57.6018 79.9036 57.7279 79.6935 57.9592C79.5044 58.2114 79.3993 58.5057 79.3993 58.8841Z" fill="#77C9F9"/>
  <path d="M98.2669 63.5508C98.2669 64.6438 98.0148 65.5267 97.5105 66.1783C97.0063 66.851 96.3339 67.1663 95.4935 67.1663C94.59 67.1663 93.8967 66.851 93.3924 66.1993L93.3294 67.0191H92.1948V56.8452H93.4134V60.6289C93.9177 60.0193 94.59 59.704 95.4515 59.704C96.3129 59.704 97.0063 60.0403 97.4895 60.692C97.9938 61.3436 98.2249 62.2475 98.2249 63.3826V63.5508H98.2669ZM97.0273 63.4036C97.0273 62.5628 96.8592 61.9322 96.544 61.4697C96.2289 61.0073 95.7666 60.7971 95.1573 60.7971C94.3589 60.7971 93.7706 61.1754 93.4134 61.9322V65.0222C93.7916 65.7789 94.3799 66.1573 95.1573 66.1573C95.7456 66.1573 96.2078 65.9261 96.523 65.4846C96.8802 65.0012 97.0273 64.3285 97.0273 63.4036Z" fill="#77C9F9"/>
  <path d="M99.4854 63.4037C99.4854 62.71 99.6324 62.0794 99.9056 61.5118C100.179 60.9443 100.557 60.5238 101.061 60.2085C101.544 59.9143 102.112 59.7461 102.742 59.7461C103.708 59.7461 104.507 60.0824 105.116 60.7551C105.725 61.4277 106.02 62.3316 106.02 63.4457V63.5298C106.02 64.2235 105.894 64.8541 105.62 65.4006C105.347 65.9471 104.969 66.3886 104.465 66.7039C103.961 67.0192 103.393 67.1663 102.763 67.1663C101.797 67.1663 100.998 66.83 100.41 66.1573C99.8005 65.4847 99.5064 64.5808 99.5064 63.4667V63.4037H99.4854ZM100.704 63.5508C100.704 64.3496 100.893 64.9802 101.25 65.4637C101.628 65.9471 102.112 66.1784 102.721 66.1784C103.351 66.1784 103.835 65.9261 104.213 65.4427C104.591 64.9592 104.759 64.2655 104.759 63.4037C104.759 62.6259 104.57 61.9743 104.192 61.4908C103.814 61.0073 103.33 60.7551 102.7 60.7551C102.091 60.7551 101.607 60.9863 101.229 61.4698C100.893 61.9743 100.704 62.6469 100.704 63.5508Z" fill="#77C9F9"/>
  <path d="M111.945 67.0402C111.882 66.8931 111.819 66.6408 111.777 66.2835C111.21 66.8721 110.537 67.1664 109.739 67.1664C109.025 67.1664 108.457 66.9561 107.995 66.5568C107.533 66.1574 107.323 65.6529 107.323 65.0433C107.323 64.3076 107.596 63.719 108.163 63.2986C108.73 62.8782 109.529 62.689 110.558 62.689H111.756V62.1214C111.756 61.701 111.63 61.3437 111.378 61.0914C111.126 60.8392 110.747 60.7131 110.243 60.7131C109.802 60.7131 109.445 60.8182 109.151 61.0494C108.857 61.2596 108.709 61.5329 108.709 61.8482H107.47C107.47 61.4908 107.596 61.1545 107.848 60.8182C108.1 60.4818 108.436 60.2296 108.878 60.0194C109.319 59.8302 109.781 59.7251 110.306 59.7251C111.126 59.7251 111.777 59.9353 112.239 60.3347C112.701 60.7341 112.954 61.3227 112.975 62.0374V65.3376C112.975 65.9892 113.059 66.5147 113.227 66.9141V67.0192H111.945V67.0402ZM109.928 66.1153C110.306 66.1153 110.684 66.0102 111.021 65.821C111.357 65.6319 111.609 65.3586 111.777 65.0433V63.5718H110.811C109.319 63.5718 108.562 64.0133 108.562 64.8961C108.562 65.2745 108.688 65.5898 108.941 65.8C109.193 66.0102 109.508 66.1153 109.928 66.1153Z" fill="#77C9F9"/>
  <path d="M116.567 58.1484V59.8931H117.912V60.8391H116.567V65.2954C116.567 65.5897 116.63 65.7999 116.756 65.947C116.882 66.0942 117.071 66.1572 117.366 66.1572C117.513 66.1572 117.702 66.1362 117.954 66.0732V67.0611C117.639 67.1452 117.324 67.1872 117.008 67.1872C116.462 67.1872 116.042 67.0191 115.769 66.6828C115.496 66.3464 115.349 65.884 115.349 65.2744V60.8391H114.046V59.8931H115.349V58.1484H116.567Z" fill="#77C9F9"/>
  <path d="M123.501 65.1483C123.501 64.812 123.375 64.5598 123.122 64.3706C122.87 64.1814 122.429 64.0343 121.82 63.8871C121.21 63.761 120.706 63.5928 120.349 63.4036C119.992 63.2145 119.719 63.0043 119.551 62.752C119.383 62.4998 119.299 62.1845 119.299 61.8481C119.299 61.2596 119.551 60.7551 120.034 60.3557C120.538 59.9563 121.168 59.7461 121.946 59.7461C122.765 59.7461 123.417 59.9563 123.921 60.3767C124.425 60.7971 124.677 61.3226 124.677 61.9953H123.438C123.438 61.6589 123.291 61.3647 123.017 61.1334C122.723 60.8812 122.366 60.7761 121.946 60.7761C121.505 60.7761 121.147 60.8812 120.895 61.0704C120.643 61.2596 120.517 61.5118 120.517 61.8271C120.517 62.1214 120.643 62.3526 120.874 62.4998C121.105 62.6469 121.526 62.7941 122.135 62.9202C122.744 63.0673 123.249 63.2145 123.627 63.4036C124.005 63.5928 124.278 63.8241 124.467 64.0973C124.656 64.3706 124.74 64.6859 124.74 65.0643C124.74 65.6949 124.488 66.2204 123.963 66.5988C123.459 66.9771 122.786 67.1873 121.967 67.1873C121.4 67.1873 120.895 67.0822 120.454 66.893C120.013 66.6828 119.677 66.4096 119.425 66.0522C119.172 65.6949 119.046 65.2955 119.046 64.8751H120.265C120.286 65.2955 120.454 65.6108 120.748 65.842C121.063 66.0732 121.463 66.1994 121.967 66.1994C122.429 66.1994 122.807 66.1153 123.08 65.9261C123.354 65.7159 123.501 65.4636 123.501 65.1483Z" fill="#77C9F9"/>
</svg>
