<svg width="25" height="24" viewBox="0 0 25 24" fill="none" xmlns="http://www.w3.org/2000/svg">
  <path d="M23.3958 0.0936896L0.531306 10.2468C-0.20928 10.5757 -0.164414 11.7867 0.597929 12.0432L6.40805 13.9982L8.57638 21.8385C8.80289 22.6574 9.71364 22.9057 10.2408 22.2923L13.2448 18.7971L19.1389 23.7271C19.8602 24.3305 20.8875 23.8822 21.0706 22.8842L24.9743 1.61692C25.1655 0.575188 24.2661 -0.29274 23.3958 0.0936896ZM20.5292 4.81343L9.90878 15.5153C9.80292 15.622 9.73554 15.7697 9.71979 15.9297L9.31089 20.0717C9.29754 20.2068 9.13165 20.2246 9.09624 20.0949L7.41393 13.9177C7.33687 13.6349 7.43733 13.3285 7.65814 13.1725L20.1998 4.30885C20.4882 4.10487 20.7835 4.5573 20.5292 4.81343Z" fill="white"/>
</svg>
