<svg width="17" height="17" viewBox="0 0 17 17" fill="none" xmlns="http://www.w3.org/2000/svg">
  <path d="M0 17L1.19059 12.776C0.424969 11.4768 0.0218669 9.99849 0.0218669 8.47989C0.0218669 3.80406 3.83006 0 8.51096 0C13.1919 0 17 3.80406 17 8.47989C17 13.1557 13.1919 16.9598 8.51096 16.9598C7.05242 16.9598 5.62423 16.5868 4.36079 15.8787L0 17ZM4.58373 14.336L4.84357 14.4945C5.94514 15.1662 7.21333 15.5213 8.51096 15.5213C12.3978 15.5213 15.56 12.3625 15.56 8.47989C15.56 4.59724 12.3978 1.43847 8.51096 1.43847C4.6241 1.43847 1.4619 4.59724 1.4619 8.47989C1.4619 9.83274 1.84681 11.1465 2.57494 12.2791L2.74993 12.5513L2.06431 14.9838L4.58373 14.336Z" fill="white"/>
  <path d="M6.46588 5.00621L5.91505 4.97622C5.74203 4.96679 5.57232 5.02454 5.44155 5.13802C5.1745 5.36966 4.74751 5.81751 4.61636 6.4011C4.42078 7.27127 4.72303 8.3368 5.50528 9.40234C6.28754 10.4679 7.74532 12.1727 10.3231 12.9009C11.1538 13.1355 11.8073 12.9773 12.3114 12.6551C12.7108 12.4 12.986 11.9905 13.0852 11.5275L13.1732 11.1172C13.2011 10.9867 13.1348 10.8544 13.0135 10.7986L11.1519 9.94139C11.031 9.88577 10.8877 9.92093 10.8064 10.0262L10.0756 10.9726C10.0204 11.0441 9.9259 11.0724 9.84056 11.0425C9.34007 10.8668 7.66356 10.1654 6.74365 8.3953C6.70376 8.31853 6.71368 8.22535 6.77026 8.15987L7.46873 7.35273C7.54009 7.27031 7.55812 7.15443 7.51524 7.05427L6.71277 5.17888C6.67005 5.07904 6.57431 5.01213 6.46588 5.00621Z" fill="white"/>
</svg>
