<svg width="37" height="38" viewBox="0 0 37 38" fill="none" xmlns="http://www.w3.org/2000/svg">
  <path d="M5.04529 31.563L6.85765 24.9521C5.6922 22.9186 5.07857 20.605 5.07857 18.2283C5.07857 10.9102 10.8756 4.95654 18.0011 4.95654C25.1266 4.95654 30.9235 10.9102 30.9235 18.2283C30.9235 25.5464 25.1266 31.5 18.0011 31.5C15.7808 31.5 13.6068 30.9164 11.6835 29.808L5.04529 31.563ZM12.0229 27.3935L12.4184 27.6416C14.0953 28.693 16.0258 29.2487 18.0011 29.2487C23.9178 29.2487 28.7314 24.305 28.7314 18.2283C28.7314 12.1516 23.9178 7.20787 18.0011 7.20787C12.0843 7.20787 7.27066 12.1516 7.27066 18.2283C7.27066 20.3456 7.8566 22.4018 8.96498 24.1744L9.23136 24.6004L8.18768 28.4075L12.0229 27.3935Z" fill="white"/>
  <path d="M14.8868 12.7917L14.0483 12.7447C13.7849 12.73 13.5265 12.8204 13.3275 12.998C12.921 13.3605 12.271 14.0614 12.0713 14.9748C11.7736 16.3367 12.2337 18.0043 13.4245 19.672C14.6153 21.3396 16.8344 24.0079 20.7585 25.1475C22.023 25.5147 23.0177 25.2671 23.7851 24.7629C24.393 24.3636 24.812 23.7226 24.963 22.998L25.0969 22.3558C25.1394 22.1517 25.0385 21.9446 24.8539 21.8572L22.02 20.5156C21.8361 20.4286 21.6179 20.4836 21.4942 20.6483L20.3817 22.1295C20.2976 22.2414 20.1538 22.2858 20.0239 22.2389C19.262 21.9639 16.7099 20.8662 15.3096 18.0959C15.2489 17.9757 15.264 17.8299 15.3501 17.7274L16.4133 16.4642C16.522 16.3352 16.5494 16.1538 16.4841 15.9971L15.2626 13.0619C15.1976 12.9057 15.0518 12.8009 14.8868 12.7917Z" fill="white"/>
</svg>
