<svg width="25" height="25" viewBox="0 0 25 25" fill="none" xmlns="http://www.w3.org/2000/svg">
  <g clip-path="url(#clip0)">
    <path d="M24.735 11.8722L21.1637 8.3008C20.9868 8.12406 20.7776 8.03577 20.5359 8.03577C20.2941 8.03577 20.0848 8.12406 19.9078 8.3008C19.7313 8.47749 19.643 8.68673 19.643 8.92856V10.7144H5.35723V8.92856C5.35723 8.68673 5.26884 8.47749 5.0921 8.3008C4.91526 8.12406 4.70597 8.03577 4.4642 8.03577C4.22247 8.03577 4.01318 8.12406 3.83644 8.3008L0.265037 11.8722C0.0883946 12.0488 0 12.2582 0 12.5C0 12.7417 0.0883946 12.9511 0.265037 13.1276L3.83644 16.6991C4.01318 16.8757 4.22232 16.9641 4.4642 16.9641C4.70617 16.9641 4.9154 16.8757 5.0921 16.6991C5.26884 16.5225 5.35723 16.3132 5.35723 16.0714V14.2854H19.643V16.0714C19.643 16.3131 19.7313 16.5225 19.9078 16.6991C20.0848 16.8757 20.2941 16.9641 20.5359 16.9641C20.7775 16.9641 20.9868 16.8757 21.1637 16.6991L24.735 13.1276C24.9117 12.9511 25 12.7417 25 12.5C25 12.2582 24.9117 12.0488 24.735 11.8722Z" fill="#77C9F9"/>
  </g>
  <defs>
    <clipPath id="clip0">
      <rect width="25" height="25" fill="white"/>
    </clipPath>
  </defs>
</svg>
