<svg width="16" height="16" viewBox="0 0 16 16" fill="none" xmlns="http://www.w3.org/2000/svg">
  <g clip-path="url(#clip0)">
    <path d="M0.625977 10.8028V12.0921C0.625977 13.5822 1.72107 14.8212 3.1487 15.0468V16H4.08623V15.0836H11.9144V16H12.8519V15.0468C14.2795 14.8212 15.3746 13.5822 15.3746 12.0921V10.8028H0.625977Z" fill="#77C9F9"/>
    <path d="M1.563 7.98872V2.57987C1.563 1.67428 2.29978 0.937531 3.20538 0.937531C4.04406 0.937531 4.73744 1.56953 4.83541 2.38222C3.85916 2.60209 3.12756 3.47556 3.12756 4.51725V5.14237H7.50544V4.51725C7.50544 3.46806 6.76331 2.58937 5.77659 2.37737C5.67281 1.04922 4.55969 0 3.20538 0C1.78281 0 0.625469 1.15731 0.625469 2.57987V7.98872H0V9.86525H15.9996V7.98872H1.563Z" fill="#77C9F9"/>
  </g>
  <defs>
    <clipPath id="clip0">
      <rect width="16" height="16" fill="white"/>
    </clipPath>
  </defs>
</svg>
