<svg width="18" height="19" viewBox="0 0 18 19" fill="none" xmlns="http://www.w3.org/2000/svg">
  <path d="M2.0496 7.10652C2.0496 6.1149 2.81388 5.30812 3.75334 5.30812H7.57785C8.17172 5.30812 8.69533 5.63074 9.00037 6.1184C9.30545 5.6307 9.82902 5.30812 10.4229 5.30812H14.2474C15.1869 5.30812 15.9511 6.1149 15.9511 7.10652V7.18934H16.3777V5.43563C16.3777 4.34739 15.5389 3.46204 14.5079 3.46204H3.49277C2.4618 3.46204 1.62305 4.34739 1.62305 5.43563V7.18934H2.04956V7.10652H2.0496Z" fill="#77C9F9"/>
  <path d="M17.2839 8.02911H0.716051C0.321218 8.02911 0 8.36818 0 8.78494V13.1727C0 13.5895 0.321218 13.9285 0.716051 13.9285H1.01412L0.66193 14.9778C0.58854 15.1963 0.696967 15.4363 0.904018 15.5138C0.947963 15.5302 0.992802 15.538 1.0369 15.538C1.20064 15.538 1.35405 15.4304 1.41186 15.2582L1.85821 13.9285H16.1418L16.5881 15.2582C16.6459 15.4304 16.7993 15.538 16.9631 15.538C17.0072 15.538 17.052 15.5302 17.096 15.5138C17.3031 15.4363 17.4115 15.1963 17.3381 14.9778L16.9859 13.9285H17.2839C17.6788 13.9285 18 13.5895 18 13.1727V8.78494C18 8.36818 17.6788 8.02911 17.2839 8.02911Z" fill="#77C9F9"/>
  <path d="M10.4228 6.14795C9.92204 6.14795 9.51465 6.57794 9.51465 7.10648V7.1893H15.1554V7.10648C15.1554 6.57794 14.748 6.14795 14.2473 6.14795H10.4228Z" fill="#77C9F9"/>
  <path d="M3.90812 6C3.40736 6 3 6.43003 3 6.95857V7.04135H8.64074V6.95853C8.64074 6.42999 8.23338 6 7.73262 6H3.90812Z" fill="#77C9F9"/>
</svg>
