<svg width="25" height="25" viewBox="0 0 25 25" fill="none" xmlns="http://www.w3.org/2000/svg">
  <g clip-path="url(#clip0)">
    <path d="M13.5476 0.861681C12.8626 -0.306962 12.1372 -0.266664 11.4521 0.861681C8.30888 5.53625 3.55371 12.5481 3.55371 16.054C3.55371 18.5122 4.56116 20.7689 6.17308 22.3808C7.78501 23.9928 10.0417 25.0002 12.4999 25.0002C14.9581 25.0002 17.2147 23.9928 18.8267 22.3808C20.4386 20.7689 21.446 18.5122 21.446 16.054C21.446 12.5078 16.6909 5.53625 13.5476 0.861681ZM18.9476 20.0436C18.3028 21.0913 17.3759 22.0182 16.2476 22.6629C15.7237 22.945 15.079 22.7838 14.7969 22.2599C14.4745 21.6958 14.676 21.051 15.1998 20.7689C16.0058 20.3256 16.6506 19.6809 17.1342 18.9152C17.6177 18.1495 17.8998 17.263 17.9401 16.3361C17.9804 15.7317 18.464 15.2884 19.0685 15.3287C19.6729 15.369 20.1162 15.8526 20.0759 16.457C19.9953 17.7466 19.5923 18.9555 18.9476 20.0436Z" fill="#77C9F9"/>
  </g>
  <defs>
    <clipPath id="clip0">
      <rect width="25" height="25" fill="white"/>
    </clipPath>
  </defs>
</svg>
