<svg width="25" height="25" viewBox="0 0 25 25" fill="none" xmlns="http://www.w3.org/2000/svg">
  <path d="M23.9583 25H1.04165C0.46875 25 0 24.5313 0 23.9584V8.75H25V23.9584C25 24.5313 24.5312 25 23.9583 25Z" fill="#F2F2F2"/>
  <path d="M25 7.96438H0V2.96438C0 2.39148 0.46875 1.92273 1.04165 1.92273H23.9583C24.5312 1.92273 25 2.39148 25 2.96438L25 7.96438Z" fill="#77C9F9"/>
  <path d="M25 8.02124H0V8.75039H25V8.02124Z" fill="#77C9F9"/>
  <path d="M6.30274 5.9375C6.8205 5.9375 7.24024 5.51777 7.24024 5C7.24024 4.48223 6.8205 4.0625 6.30274 4.0625C5.78497 4.0625 5.36523 4.48223 5.36523 5C5.36523 5.51777 5.78497 5.9375 6.30274 5.9375Z" fill="white"/>
  <path d="M6.30239 5.3646C5.88574 5.3646 5.57324 5.0521 5.57324 4.63545V0.729199C5.57319 0.3125 5.88569 0 6.30239 0C6.71904 0 7.03154 0.3125 7.03154 0.72915V4.5833C7.08364 5.0521 6.71904 5.3646 6.30239 5.3646Z" fill="#40596B"/>
  <path d="M18.6973 5.9375C19.215 5.9375 19.6348 5.51777 19.6348 5C19.6348 4.48223 19.215 4.0625 18.6973 4.0625C18.1795 4.0625 17.7598 4.48223 17.7598 5C17.7598 5.51777 18.1795 5.9375 18.6973 5.9375Z" fill="white"/>
  <path d="M18.6979 5.3646C18.2813 5.3646 17.9688 5.0521 17.9688 4.63545V0.729199C17.9688 0.3125 18.2813 0 18.6979 0C19.1146 0 19.4271 0.3125 19.4271 0.72915V4.5833C19.4271 5.0521 19.1146 5.3646 18.6979 5.3646Z" fill="#40596B"/>
  <path d="M11.7183 10.5725H7.55176V13.7498H11.7183V10.5725Z" fill="#C4C4C4"/>
  <path d="M17.4478 10.5725H13.2812V13.7498H17.4478V10.5725Z" fill="#C4C4C4"/>
  <path d="M23.1763 10.5725H19.0098V13.7498H23.1763V10.5725Z" fill="#C4C4C4"/>
  <path d="M5.98877 15.26H1.82227V18.4373H5.98877V15.26Z" fill="#C4C4C4"/>
  <path d="M11.7134 15.0944H7.54688V18.2716H11.7134V15.0944Z" fill="#77C9F9"/>
  <path d="M17.4478 15.26H13.2812V18.4373H17.4478V15.26Z" fill="#C4C4C4"/>
  <path d="M23.1763 15.26H19.0098V18.4373H23.1763V15.26Z" fill="#C4C4C4"/>
  <path d="M5.98877 19.9989H1.82227V23.1761H5.98877V19.9989Z" fill="#C4C4C4"/>
  <path d="M11.7183 19.9989H7.55176V23.1761H11.7183V19.9989Z" fill="#C4C4C4"/>
  <path d="M17.4478 19.9989H13.2812V23.1761H17.4478V19.9989Z" fill="#C4C4C4"/>
</svg>
