<svg width="26" height="26" viewBox="0 0 26 26" fill="none" xmlns="http://www.w3.org/2000/svg">
<g clip-path="url(#clip0)">
<path d="M24.9167 25.9996H1.08332C0.4875 25.9996 0 25.5121 0 24.9163V9.09961H26V24.9163C26 25.5121 25.5125 25.9996 24.9167 25.9996Z" fill="#F2F2F2"/>
<path d="M26 8.28332H0V3.08332C0 2.4875 0.4875 2 1.08332 2H24.9166C25.5124 2 25.9999 2.4875 25.9999 3.08332L26 8.28332Z" fill="#77C9F9"/>
<path d="M26 8.3418H0V9.10011H26V8.3418Z" fill="#213E6F"/>
<path d="M6.55459 6.17461C7.09307 6.17461 7.52959 5.73809 7.52959 5.19961C7.52959 4.66113 7.09307 4.22461 6.55459 4.22461C6.01611 4.22461 5.57959 4.66113 5.57959 5.19961C5.57959 5.73809 6.01611 6.17461 6.55459 6.17461Z" fill="white"/>
<path d="M6.55422 5.57918C6.1209 5.57918 5.7959 5.25418 5.7959 4.82087V0.758367C5.79585 0.325 6.12085 0 6.55422 0C6.98753 0 7.31253 0.325 7.31253 0.758316V4.76663C7.36672 5.25418 6.98753 5.57918 6.55422 5.57918Z" fill="#40596B"/>
<path d="M19.4457 6.17461C19.9842 6.17461 20.4207 5.73809 20.4207 5.19961C20.4207 4.66113 19.9842 4.22461 19.4457 4.22461C18.9072 4.22461 18.4707 4.66113 18.4707 5.19961C18.4707 5.73809 18.9072 6.17461 19.4457 6.17461Z" fill="white"/>
<path d="M19.4458 5.57918C19.0125 5.57918 18.6875 5.25418 18.6875 4.82087V0.758367C18.6875 0.325 19.0125 0 19.4458 0C19.8791 0 20.2041 0.325 20.2041 0.758316V4.76663C20.2042 5.25418 19.8792 5.57918 19.4458 5.57918Z" fill="#40596B"/>
<path d="M12.1877 10.9961H7.85449V14.3004H12.1877V10.9961Z" fill="#CDD6E0"/>
<path d="M18.1457 10.9961H13.8125V14.3004H18.1457V10.9961Z" fill="#CDD6E0"/>
<path d="M24.1037 10.9961H19.7705V14.3004H24.1037V10.9961Z" fill="#CDD6E0"/>
<path d="M6.22867 15.8711H1.89551V19.1754H6.22867V15.8711Z" fill="#CDD6E0"/>
<path d="M12.1877 15.8711H7.85449V19.1754H12.1877V15.8711Z" fill="#FFD15C"/>
<path d="M18.1457 15.8711H13.8125V19.1754H18.1457V15.8711Z" fill="#CDD6E0"/>
<path d="M24.3332 16H20V19.3043H24.3332V16Z" fill="#CDD6E0"/>
<path d="M6.22867 20.8008H1.89551V24.1051H6.22867V20.8008Z" fill="#CDD6E0"/>
<path d="M12.1877 20.8008H7.85449V24.1051H12.1877V20.8008Z" fill="#CDD6E0"/>
<path d="M18.1457 20.8008H13.8125V24.1051H18.1457V20.8008Z" fill="#CDD6E0"/>
</g>
<defs>
<clipPath id="clip0">
<rect width="26" height="26" fill="white"/>
</clipPath>
</defs>
</svg>
