<svg width="25" height="25" viewBox="0 0 25 25" fill="none" xmlns="http://www.w3.org/2000/svg">
  <path d="M22.0612 9.89489L16.2418 4.07568C15.819 3.65231 15.233 3.40984 14.6349 3.40984H12.4998V1.70535C12.4998 0.765448 11.7352 0.000852273 10.7952 0.000852273L6.24975 0C5.3098 0 4.54521 0.764596 4.54521 1.70449V3.40899C3.29231 3.40899 2.27246 4.42825 2.27246 5.68163V22.7265C2.27246 23.9799 3.29231 24.9991 4.54521 24.9991L20.4543 25C21.7072 25 22.7271 23.9807 22.7271 22.7274V11.5017C22.7271 10.9036 22.484 10.3177 22.0612 9.89489ZM10.7952 20.455C9.22829 20.455 7.95435 19.1805 7.95435 17.6141C7.95435 16.187 9.99518 14.1806 10.4046 13.7927C10.6244 13.5852 10.9662 13.5852 11.1859 13.7927C11.5954 14.1805 13.6362 16.187 13.6362 17.6141C13.6361 19.1805 12.3622 20.455 10.7952 20.455ZM19.3867 13.7056C19.0649 14.0275 18.6366 14.205 18.1816 14.205C17.7266 14.205 17.2983 14.0275 16.9764 13.7056L12.431 9.16018C11.7663 8.49546 11.7663 7.41457 12.431 6.74985C13.0946 6.08513 14.1777 6.08513 14.8413 6.74985L19.3867 11.2953C20.0515 11.96 20.0515 13.0409 19.3867 13.7056Z" fill="#77C9F9"/>
</svg>
