<svg width="14" height="25" viewBox="0 0 14 25" fill="none" xmlns="http://www.w3.org/2000/svg">
  <path d="M11.1 0.694336H3.36161C1.81437 0.694336 0.555664 1.9531 0.555664 3.50028V23.7204C0.555664 24.2866 1.01632 24.7473 1.58257 24.7473H12.8792C13.4454 24.7473 13.9061 24.2866 13.9061 23.7204V3.50028C13.906 1.95304 12.6473 0.694336 11.1 0.694336ZM10.5072 13.5198H8.71991C8.27864 13.5198 7.92091 13.1621 7.92091 12.7208C7.92091 12.2795 8.27864 11.9218 8.71991 11.9218H10.5072C10.9485 11.9218 11.3062 12.2795 11.3062 12.7208C11.3062 13.1621 10.9485 13.5198 10.5072 13.5198Z" fill="#77C9F9"/>
</svg>
