<svg width="25" height="25" viewBox="0 0 25 25" fill="none" xmlns="http://www.w3.org/2000/svg">
  <path d="M10.9443 0C5.82883 0 1.66699 4.15211 1.66699 9.25598C1.66699 11.833 3.00881 15.1428 5.65507 19.0937C7.62345 22.0325 9.60767 24.2588 9.82739 24.5029C10.1118 24.8188 10.5188 25 10.9441 25C11.3699 25 11.7769 24.8188 12.0611 24.5029C12.2808 24.259 14.2645 22.0339 16.2336 19.0937C18.8799 15.1428 20.2217 11.833 20.2217 9.25598C20.2215 4.15211 16.0598 0 10.9443 0ZM10.9443 15.6466C7.3404 15.6466 4.40842 12.7211 4.40842 9.12495C4.40842 5.52902 7.3404 2.60353 10.9443 2.60353C14.5483 2.60353 17.4804 5.52902 17.4804 9.12514C17.4804 12.7211 14.5483 15.6466 10.9443 15.6466Z" fill="#77C9F9"/>
</svg>
