<svg width="25" height="25" viewBox="0 0 25 25" fill="none" xmlns="http://www.w3.org/2000/svg">
  <path d="M12.5 0C8.86528 0 5.9082 2.95708 5.9082 6.5918C5.9082 10.2265 8.86528 13.1836 12.5 13.1836C16.1347 13.1836 19.0918 10.2265 19.0918 6.5918C19.0918 2.95708 16.1347 0 12.5 0Z" fill="#77C9F9"/>
  <path d="M20.5765 17.4251C18.7718 15.5926 16.3793 14.5835 13.8398 14.5835H10.9102C8.3707 14.5835 5.97822 15.5926 4.17353 17.4251C2.37769 19.2485 1.38867 21.6554 1.38867 24.2026C1.38867 24.6071 1.7166 24.9351 2.12109 24.9351H22.6289C23.0334 24.9351 23.3613 24.6071 23.3613 24.2026C23.3613 21.6554 22.3723 19.2485 20.5765 17.4251Z" fill="#77C9F9"/>
</svg>
