<svg width="16" height="16" viewBox="0 0 16 16" fill="none" xmlns="http://www.w3.org/2000/svg">
  <path d="M8.21875 0C5.89253 0 4 1.89253 4 4.21875C4 6.54497 5.89253 8.4375 8.21875 8.4375C10.545 8.4375 12.4375 6.54497 12.4375 4.21875C12.4375 1.89253 10.545 0 8.21875 0Z" fill="#77C9F9"/>
  <path d="M13.2802 10.8186C12.1252 9.64584 10.594 9 8.96875 9H7.09375C5.4685 9 3.93731 9.64584 2.78231 10.8186C1.63297 11.9856 1 13.526 1 15.1562C1 15.4151 1.20987 15.625 1.46875 15.625H14.5938C14.8526 15.625 15.0625 15.4151 15.0625 15.1562C15.0625 13.526 14.4295 11.9856 13.2802 10.8186Z" fill="#77C9F9"/>
</svg>
