<svg width="25" height="25" viewBox="0 0 25 25" fill="none" xmlns="http://www.w3.org/2000/svg">
  <path d="M8.33333 1.25V0.41665C8.33333 0.186523 8.14681 0 7.91668 0H0.416698C0.186572 0 0 0.186523 0 0.41665V1.25C0 1.48012 0.186523 1.66665 0.41665 1.66665H7.91664C8.14681 1.66665 8.33333 1.48012 8.33333 1.25Z" fill="#77C9F9"/>
  <path d="M12.6422 18.2413C10.3756 17.3871 8.7214 15.5204 8.4006 13.2871C8.37712 13.0751 8.19728 12.915 7.98395 12.9163H2.15057C1.92049 12.9133 1.73153 13.0974 1.72855 13.3276C1.72825 13.3517 1.73001 13.3758 1.73387 13.3996C2.08387 15.3246 3.87136 16.1663 5.00051 17.0496C6.58801 18.2996 7.763 20.383 7.17136 24.5163C7.13454 24.7434 7.28879 24.9574 7.51593 24.9943C7.53976 24.9981 7.56388 24.9999 7.58801 24.9996H11.4338C11.5889 25.0007 11.7318 24.9156 11.8047 24.7787C12.7088 22.9996 12.9172 20.7996 12.9172 18.6329C12.9171 18.4575 12.8072 18.301 12.6422 18.2413Z" fill="#77C9F9"/>
  <path d="M7.49965 11.6666V5.41664H8.33299C8.56312 5.41664 8.74964 5.23012 8.74964 4.99999C8.74964 4.76987 8.56312 4.58334 8.33299 4.58334H7.49965V2.91665C7.49965 2.68652 7.31307 2.5 7.083 2.5H1.24966C1.01953 2.5 0.833008 2.68652 0.833008 2.91665V11.6666C0.833008 11.8968 1.01953 12.0833 1.24966 12.0833H7.083C7.31312 12.0833 7.49965 11.8968 7.49965 11.6666Z" fill="#77C9F9"/>
  <path d="M18.7504 19.0579C18.7523 18.8277 18.5673 18.6397 18.3372 18.6377C18.3179 18.6376 18.2986 18.6387 18.2795 18.6412C17.8843 18.7083 17.4845 18.7445 17.0837 18.7496H15.417C15.0151 18.7488 14.6139 18.7168 14.217 18.6537C13.9888 18.6238 13.7796 18.7845 13.7497 19.0127C13.7472 19.0318 13.746 19.0511 13.7462 19.0704C13.7378 20.9033 13.4049 22.7202 12.7628 24.437C12.6822 24.6525 12.7917 24.8926 13.0072 24.9732C13.0517 24.9898 13.0987 24.9987 13.1461 24.9995H19.3545C19.5846 24.9975 19.7694 24.8092 19.7673 24.5791C19.7669 24.5275 19.7568 24.4766 19.7378 24.4287C19.0941 22.7108 18.7597 20.8924 18.7504 19.0579Z" fill="#77C9F9"/>
  <path d="M24.3746 10.8337H8.95801C8.61284 10.8337 8.33301 11.1136 8.33301 11.4587C8.33301 11.8039 8.61284 12.0837 8.95801 12.0837H24.3746C24.7198 12.0837 24.9996 11.8039 24.9996 11.4587C24.9996 11.1135 24.7198 10.8337 24.3746 10.8337Z" fill="#77C9F9"/>
  <path d="M22.9127 12.9247C22.8839 12.9188 22.8545 12.9161 22.8251 12.9163H9.67509C9.44501 12.9117 9.25473 13.0944 9.25009 13.3245C9.24945 13.3553 9.25228 13.3861 9.25844 13.4163C9.76679 15.9663 12.3293 17.9163 15.4168 17.9163H17.0834C20.1709 17.9163 22.7334 15.9663 23.2376 13.4163C23.2836 13.1909 23.1382 12.9708 22.9127 12.9247Z" fill="#77C9F9"/>
</svg>
