<svg width="25" height="25" viewBox="0 0 25 25" fill="none" xmlns="http://www.w3.org/2000/svg">
  <path d="M23.6722 11.1727H20.4095C20.0567 11.1727 19.7408 11.3139 19.5023 11.5396C19.3337 10.3047 18.8453 9.17121 18.124 8.22421C18.4539 8.21749 18.7826 8.09933 19.0324 7.84676L21.3386 5.5417C21.8577 5.02256 21.8577 4.18141 21.3386 3.66227C20.8205 3.14368 19.9794 3.14368 19.4603 3.66227L17.153 5.97012C16.9021 6.22101 16.7833 6.5475 16.7772 6.87792C15.8307 6.15605 14.6973 5.66939 13.463 5.49858C13.6875 5.26225 13.8281 4.94528 13.8281 4.5919V1.33089C13.8281 0.596698 13.2339 0.00195312 12.4997 0.00195312C11.7661 0.00195312 11.1713 0.596698 11.1713 1.33089V4.5919C11.1713 4.94528 11.3114 5.26225 11.5382 5.49858C10.3039 5.66939 9.16982 6.15605 8.22338 6.87792C8.2161 6.5475 8.0985 6.22101 7.84649 5.97012L5.54031 3.66227C5.02173 3.14368 4.17945 3.14368 3.66199 3.66227C3.14341 4.18085 3.14285 5.02312 3.66199 5.5417L5.96817 7.84788C6.21962 8.09989 6.54667 8.21749 6.87653 8.22421C6.15578 9.17009 5.668 10.3047 5.49887 11.5396C5.26142 11.3139 4.94501 11.1727 4.59163 11.1727H1.3295C0.594745 11.1727 0 11.7686 0 12.5011C0 13.2353 0.594745 13.8306 1.3295 13.8306H4.59107C4.94445 13.8306 5.26086 13.6895 5.49831 13.4638C5.66744 14.6986 6.15522 15.8316 6.87597 16.778C6.54611 16.7847 6.21906 16.9029 5.96761 17.1538L3.66087 19.4605C3.14229 19.9802 3.14229 20.8208 3.66143 21.3388C4.18001 21.858 5.02229 21.858 5.53975 21.34L7.84649 19.0332C8.0985 18.7829 8.2161 18.4536 8.22338 18.1249C9.16982 18.8456 10.3039 19.3351 11.5382 19.5025C11.3114 19.7405 11.1713 20.0558 11.1713 20.4103V23.6719C11.1713 24.4061 11.7666 24.9997 12.4997 24.9997C13.2345 24.9997 13.8281 24.405 13.8281 23.6719V20.4103C13.8281 20.0558 13.6875 19.7405 13.463 19.5025C14.6973 19.334 15.8307 18.8451 16.7772 18.1249C16.7833 18.4536 16.9021 18.7829 17.153 19.0332L19.4608 21.34C19.9794 21.8585 20.8205 21.8585 21.3391 21.3388C21.8577 20.8197 21.8577 19.9791 21.3391 19.4605L19.0324 17.1538C18.7826 16.9029 18.4544 16.7847 18.124 16.778C18.8453 15.8327 19.3337 14.6986 19.5023 13.4638C19.7408 13.6895 20.0567 13.8306 20.4095 13.8306H23.6722C24.4064 13.8306 25 13.2353 25 12.5011C25 11.7686 24.4053 11.1727 23.6722 11.1727ZM13.37 7.22905C14.1972 7.36514 14.9599 7.68827 15.6129 8.15869L13.37 10.4027V7.22905ZM11.6322 10.4038L9.38767 8.15869C10.0418 7.68827 10.8045 7.36514 11.6322 7.22905V10.4038ZM10.4019 11.6331H7.22822C7.36431 10.8048 7.688 10.0415 8.15842 9.3885L10.4019 11.6331ZM10.4019 13.3697L8.15842 15.6132C7.688 14.9602 7.36431 14.198 7.22822 13.3697H10.4019ZM11.6322 14.599V17.7737C10.8045 17.6376 10.0418 17.3134 9.38767 16.8424L11.6322 14.599ZM13.37 14.599L15.6129 16.8424C14.9599 17.3134 14.1972 17.6376 13.37 17.7737V14.599ZM14.5981 13.3697H17.7729C17.6368 14.198 17.3131 14.9602 16.8416 15.6132L14.5981 13.3697ZM14.5981 11.6331L16.8416 9.3885C17.3131 10.0415 17.6368 10.8042 17.7729 11.6331H14.5981Z" fill="#77C9F9"/>
</svg>
